<svg width="96" height="97" viewBox="0 0 96 97" fill="none" xmlns="http://www.w3.org/2000/svg">
<g filter="url(#filter0_b_11_5723)">
<rect y="0.648438" width="96" height="96" rx="48" fill="#1E4854" fill-opacity="0.77"/>
<path d="M48 68.6484C59.0457 68.6484 68 59.6941 68 48.6484C68 37.6027 59.0457 28.6484 48 28.6484C36.9543 28.6484 28 37.6027 28 48.6484C28 59.6941 36.9543 68.6484 48 68.6484Z" stroke="#C0D2DB" stroke-width="4" stroke-linecap="round" stroke-linejoin="round"/>
<path d="M43 42.5791C43 41.6245 43 41.1472 43.1995 40.8808C43.3733 40.6486 43.6394 40.5033 43.9288 40.4826C44.2608 40.4589 44.6622 40.717 45.4652 41.2332L54.9064 47.3026C55.6032 47.7505 55.9516 47.9744 56.0719 48.2592C56.177 48.508 56.177 48.7888 56.0719 49.0377C55.9516 49.3224 55.6032 49.5464 54.9064 49.9943L45.4652 56.0637C44.6622 56.5798 44.2608 56.8379 43.9288 56.8142C43.6394 56.7936 43.3733 56.6483 43.1995 56.4161C43 56.1496 43 55.6723 43 54.7178V42.5791Z" stroke="#C0D2DB" stroke-width="4" stroke-linecap="round" stroke-linejoin="round"/>
</g>
<defs>
<filter id="filter0_b_11_5723" x="-20" y="-19.3516" width="136" height="136" filterUnits="userSpaceOnUse" color-interpolation-filters="sRGB">
<feFlood flood-opacity="0" result="BackgroundImageFix"/>
<feGaussianBlur in="BackgroundImageFix" stdDeviation="10"/>
<feComposite in2="SourceAlpha" operator="in" result="effect1_backgroundBlur_11_5723"/>
<feBlend mode="normal" in="SourceGraphic" in2="effect1_backgroundBlur_11_5723" result="shape"/>
</filter>
</defs>
</svg>
