<svg width="900" height="640" viewBox="0 0 900 640" fill="none" xmlns="http://www.w3.org/2000/svg">
<rect width="900" height="640" fill="#C5D9E2"/>
<mask id="mask0_70_2846" style="mask-type:luminance" maskUnits="userSpaceOnUse" x="382" y="247" width="136" height="48">
<path d="M517.871 247.864H382.129V294.559H517.871V247.864Z" fill="white"/>
</mask>
<g mask="url(#mask0_70_2846)">
<path d="M435.724 274.284L436.06 278.122C436.227 280.04 436.849 282.174 439.132 281.975C439.819 281.934 440.474 281.672 441 281.228C441.799 280.395 441.352 277.33 441.328 276.639C441.25 275.338 441.22 273.73 440.967 270.835C440.935 270.472 441.074 270.389 441.4 270.361C442.462 270.317 443.48 269.922 444.293 269.236C445.165 268.358 444.068 267.907 442.655 268.03C442.218 268.024 441.747 268.065 441.313 268.103C440.878 268.141 440.711 267.9 440.712 267.462C440.789 265.85 440.542 264.267 440.547 262.661C440.596 260.724 440.882 261.064 442.121 260.628C442.707 260.479 443.275 260.271 443.818 260.005C444.815 259.337 443.848 258.291 441.205 258.522C439.844 258.67 438.511 259.006 437.243 259.521C435.303 260.277 435.193 263.607 435.724 274.284ZM447.881 263.118C449.207 262.857 449.096 262.428 448.584 260.321C448.552 259.912 448.367 259.531 448.065 259.253C447.764 258.975 447.368 258.82 446.958 258.821C446.621 258.748 446.275 258.728 445.932 258.763C445.761 258.771 445.592 258.798 445.428 258.843C444.324 259.157 444.707 259.777 444.851 261.847C444.913 262.973 446.468 263.239 447.626 263.137L447.881 263.118ZM449.613 266.25C449.336 264.742 448.083 264.596 446.779 264.71C445.513 264.82 445.148 265.253 445.193 266.6C445.23 270.432 445.54 274.257 446.12 278.046C446.426 279.88 447.42 280.449 449.198 280.294C449.499 280.295 449.796 280.231 450.07 280.105C450.343 279.98 450.586 279.796 450.781 279.567C450.977 279.338 451.12 279.07 451.2 278.78C451.281 278.49 451.298 278.186 451.249 277.889C451.091 276.481 450.255 269.002 449.613 266.25ZM456.204 272.386C455.999 272.037 455.855 271.654 455.779 271.256C454.331 265.911 454.266 264.385 451.939 264.041C451.686 263.997 451.429 263.982 451.172 263.999C449.942 264.107 450.627 265.688 451.685 269.864C452.298 272.29 452.841 274.759 453.564 277.177C453.82 277.817 454.271 278.36 454.853 278.728C455.436 279.096 456.12 279.271 456.808 279.228C457.134 279.201 457.449 279.099 457.73 278.929C459.885 277.72 459.582 273.406 461.023 266.531C461.288 265.377 461.282 264.502 459.101 264.146C458.825 264.077 458.539 264.053 458.255 264.074C457.606 264.13 457.352 264.588 457.303 265.652C457.063 267.916 456.696 270.164 456.204 272.386ZM473.688 268.744C473.711 266.516 473.205 264.883 473.244 264.077C473.23 262.253 471.018 261.607 469.071 261.777C468.682 261.81 468.297 261.88 467.922 261.987C466.818 262.301 465.754 262.65 464.648 262.927C464.045 263.008 463.488 263.294 463.069 263.735C462.65 264.176 462.394 264.747 462.344 265.353C461.983 267.254 461.823 269.188 461.867 271.122C462.083 276.939 461.689 278.688 465.671 278.34C467.155 278.211 469.269 277.771 472.245 277.182C474.076 276.84 473.937 276.086 473.296 275.85C473.029 275.708 472.736 275.622 472.435 275.598C471.525 275.541 470.611 275.56 469.704 275.655C469.014 275.707 468.328 275.803 467.65 275.943C467.326 275.971 467.07 275.994 467.033 275.561C466.653 271.217 466.441 270.871 466.984 270.823L467.129 270.811C468.883 270.84 470.273 270.901 471.323 270.81C472.871 270.674 473.634 270.208 473.688 268.744ZM469.368 268.576C469.382 268.644 469.381 268.714 469.364 268.781C469.347 268.848 469.315 268.911 469.27 268.964C469.226 269.017 469.17 269.059 469.107 269.088C469.043 269.116 468.975 269.13 468.905 269.128L468.833 269.134C467.043 269.108 466.582 269.258 466.604 268.675C466.772 265.998 466.673 265.276 467.815 264.994C468.174 264.927 468.421 264.832 468.602 264.817C468.964 264.785 469.05 264.959 469.142 265.572L469.368 268.576Z" fill="#44283D"/>
<path d="M398.704 273.832C398.67 275.479 398.634 279.164 398.56 279.956C398.389 280.865 398.323 280.977 397.441 281.054C396.77 281.149 396.203 281.198 395.742 281.239C394.784 281.322 394.178 281.339 393.576 281.392C392.689 281.469 392.497 283.775 393.99 283.644C394.949 283.561 397.44 283.452 399.356 283.285C400.103 283.233 400.847 283.132 401.581 282.981C404.022 282.232 403.391 277.926 403.483 268.339C403.495 266.971 403.4 265.605 403.198 264.253C403.184 263.672 402.943 263.119 402.526 262.714C402.109 262.309 401.549 262.084 400.968 262.088C399.851 261.963 398.724 261.952 397.605 262.055C394.589 262.318 391.136 263.299 391.131 265.301C391.112 267.74 391.325 270.175 391.767 272.574C392.135 274.293 392.891 274.799 394.677 274.786C396.061 274.68 397.42 274.358 398.704 273.832ZM395.737 270.552C395.488 268.713 395.386 266.858 395.431 265.003C395.394 264.577 395.556 264.384 395.91 264.353C398.188 264.226 398.417 263.991 398.529 265.269C398.74 267.244 398.818 269.231 398.763 271.217C398.77 271.368 398.727 271.517 398.641 271.641C398.555 271.764 398.43 271.856 398.286 271.902C397.829 272.098 397.348 272.235 396.856 272.312C396.077 272.381 395.919 271.823 395.737 270.552ZM406.97 258.781C408.27 258.525 408.162 258.105 407.66 256.04C407.629 255.638 407.448 255.263 407.152 254.989C406.856 254.716 406.468 254.564 406.065 254.565C405.733 254.494 405.393 254.476 405.055 254.511C404.889 254.52 404.723 254.546 404.562 254.59C403.481 254.902 403.856 255.509 403.998 257.535C404.058 258.638 405.583 258.898 406.717 258.799L406.97 258.781ZM408.667 261.85C408.395 260.367 407.167 260.225 405.891 260.336C404.65 260.444 404.293 260.869 404.338 262.187C404.374 265.943 404.677 269.691 405.245 273.403C405.545 275.2 406.523 275.758 408.261 275.606C408.556 275.607 408.848 275.544 409.115 275.421C409.383 275.298 409.621 275.118 409.813 274.894C410.004 274.67 410.144 274.407 410.223 274.123C410.303 273.839 410.319 273.541 410.271 273.251C410.115 271.869 409.296 264.542 408.667 261.845L408.667 261.85ZM415.126 267.863C414.922 267.521 414.779 267.147 414.702 266.756C413.279 261.518 413.22 260.02 410.939 259.686C410.69 259.641 410.437 259.627 410.185 259.643C408.979 259.748 409.65 261.298 410.687 265.389C411.288 267.767 411.821 270.187 412.528 272.556C412.778 273.184 413.22 273.716 413.791 274.077C414.362 274.438 415.032 274.61 415.706 274.568C416.026 274.54 416.335 274.438 416.61 274.271C418.722 273.086 418.425 268.858 419.838 262.121C420.097 260.99 420.094 260.137 417.954 259.779C417.683 259.712 417.404 259.688 417.126 259.709C416.488 259.765 416.241 260.216 416.189 261.257C415.958 263.475 415.604 265.678 415.126 267.857L415.126 267.863ZM432.257 264.296C432.284 262.114 431.784 260.513 431.822 259.723C431.808 257.937 429.649 257.304 427.729 257.472C427.348 257.504 426.97 257.573 426.603 257.679C425.522 257.991 424.48 258.329 423.395 258.602C422.804 258.682 422.259 258.961 421.848 259.394C421.437 259.826 421.186 260.385 421.136 260.979C420.781 262.842 420.623 264.736 420.665 266.632C420.877 272.333 420.491 274.046 424.392 273.705C425.847 273.578 427.918 273.147 430.832 272.571C432.626 272.235 432.489 271.496 431.862 271.265C431.601 271.124 431.314 271.038 431.018 271.012C430.126 270.956 429.231 270.974 428.342 271.067C427.666 271.119 426.994 271.214 426.33 271.352C426.006 271.38 425.762 271.402 425.725 270.975C425.353 266.718 425.145 266.379 425.677 266.333L425.819 266.32C427.536 266.349 428.901 266.408 429.929 266.319C431.457 266.181 432.204 265.722 432.257 264.288L432.257 264.296ZM428.025 264.13C428.039 264.196 428.037 264.265 428.02 264.33C428.004 264.396 427.972 264.457 427.929 264.509C427.885 264.561 427.831 264.603 427.769 264.63C427.707 264.658 427.64 264.671 427.572 264.67L427.5 264.676C425.747 264.65 425.295 264.796 425.316 264.224C425.48 261.6 425.383 260.894 426.503 260.617C426.855 260.55 427.097 260.456 427.274 260.441C427.629 260.41 427.716 260.581 427.803 261.181L428.025 264.13Z" fill="#44283D"/>
<path d="M414.738 278.124C414.85 278.034 414.988 277.984 415.131 277.981L415.263 277.969C415.829 277.947 415.829 277.947 415.983 278.474C416.366 279.766 416.923 285.83 417.044 286.875C417.142 287.38 417.71 287.384 418.113 287.349C418.762 287.292 419.463 287.013 419.462 286.393C419.751 284.013 419.724 281.605 419.382 279.232C419.329 278.939 419.457 278.848 419.722 278.797C419.906 278.753 420.093 278.719 420.281 278.694C421.032 278.628 420.892 279.452 421.377 285.355C421.468 286.402 421.466 286.997 422.229 287.066C422.346 287.081 422.463 287.084 422.58 287.074C423.086 287.044 423.562 286.822 423.912 286.454C424.261 286.086 424.458 285.599 424.462 285.092C424.486 284.116 424.484 283.17 424.453 282.198C424.326 278.585 424.221 277.376 422.26 277.223C421.9 277.183 421.537 277.178 421.177 277.209C420.532 277.3 419.893 277.428 419.263 277.594L419.154 277.603C418.614 277.65 418.802 276.66 417.043 276.652C416.359 276.635 415.675 276.658 414.994 276.722C414.303 276.778 413.616 276.875 412.936 277.011C411.445 277.276 411.765 278.465 411.825 280.083C412.014 286.261 411.981 286.562 412.384 287.717C412.465 287.91 412.612 288.07 412.798 288.167C412.985 288.264 413.199 288.293 413.405 288.25C413.809 288.217 414.195 288.067 414.514 287.818C414.834 287.569 415.073 287.231 415.203 286.847C415.305 286.509 415.356 286.159 415.355 285.806C415.405 283.231 415.198 280.658 414.738 278.124ZM434.604 279.5C434.622 277.849 434.245 276.637 434.275 276.042C434.267 274.688 432.628 274.208 431.178 274.335C430.889 274.359 430.604 274.411 430.326 274.49C429.508 274.724 428.719 274.983 427.899 275.189C427.451 275.249 427.037 275.46 426.725 275.787C426.413 276.115 426.223 276.539 426.185 276.989C425.916 278.4 425.797 279.835 425.829 281.271C425.987 285.584 425.696 286.882 428.649 286.624C429.75 286.528 431.317 286.201 433.524 285.762C434.881 285.508 434.778 284.95 434.303 284.774C434.105 284.669 433.888 284.605 433.664 284.587C432.992 284.544 432.317 284.558 431.647 284.627C431.135 284.665 430.626 284.737 430.124 284.841C429.883 284.862 429.691 284.878 429.663 284.554C429.381 281.333 429.224 281.075 429.626 281.04L429.734 281.031C431.034 281.052 432.067 281.097 432.845 281.029C433.999 280.932 434.564 280.585 434.604 279.5ZM431.406 279.373C431.416 279.423 431.415 279.475 431.402 279.525C431.39 279.574 431.366 279.62 431.333 279.66C431.3 279.699 431.259 279.73 431.212 279.751C431.166 279.772 431.115 279.782 431.064 279.781L431.006 279.786C429.68 279.767 429.337 279.878 429.354 279.443C429.478 277.458 429.404 276.924 430.251 276.715C430.517 276.664 430.7 276.595 430.835 276.583C431.103 276.56 431.171 276.689 431.235 277.143L431.406 279.373Z" fill="#44283D"/>
<path d="M512.989 276.464C512.918 276.535 504.424 283.554 501.546 285.731C499.913 286.91 498.015 287.668 496.019 287.938C494.022 288.207 491.991 287.979 490.104 287.275C489.239 286.977 488.414 286.576 487.646 286.08C478.633 281.178 484.487 265.161 484.487 265.161L487.365 256.948C487.551 256.424 487.933 255.992 488.43 255.744C488.928 255.495 489.502 255.449 490.033 255.615C490.536 255.825 490.956 256.195 491.228 256.668C491.46 257.176 491.486 257.756 491.298 258.283L488.769 265.442C488.705 265.657 488.719 265.888 488.809 266.094C488.899 266.299 489.059 266.466 489.261 266.565C489.332 266.565 489.472 266.636 489.542 266.636C489.722 266.636 489.899 266.583 490.049 266.483C490.199 266.383 490.316 266.241 490.385 266.074L492.912 258.914C492.912 258.843 492.912 258.843 492.982 258.774L494.737 253.929C494.923 253.405 495.305 252.974 495.802 252.725C496.3 252.477 496.874 252.43 497.404 252.596C497.908 252.806 498.327 253.176 498.599 253.649C498.833 254.182 498.858 254.783 498.669 255.333L498.599 255.544L495.089 265.723C495.023 265.947 495.044 266.187 495.148 266.396C495.252 266.604 495.432 266.765 495.651 266.846C495.721 266.846 495.861 266.917 495.932 266.917C496.112 266.917 496.288 266.864 496.438 266.764C496.588 266.664 496.705 266.522 496.775 266.355L500.425 255.965L501.479 253.017C501.666 252.494 502.047 252.064 502.544 251.817C503.041 251.569 503.614 251.523 504.144 251.688C504.647 251.898 505.067 252.268 505.338 252.741C505.571 253.25 505.596 253.829 505.409 254.356L503.862 258.563C503.792 258.703 503.792 258.774 503.722 258.914C503.722 258.984 503.722 259.054 503.652 259.054L500.493 267.76C500.429 267.975 500.443 268.206 500.533 268.411C500.623 268.617 500.783 268.784 500.985 268.882C501.055 268.882 501.195 268.953 501.266 268.953C501.446 268.953 501.622 268.9 501.772 268.8C501.922 268.7 502.039 268.558 502.109 268.392L505.408 259.27C505.631 258.797 506.013 258.417 506.489 258.199C506.964 257.98 507.501 257.936 508.005 258.075C508.508 258.285 508.928 258.656 509.2 259.129C509.433 259.637 509.458 260.216 509.27 260.743L504.635 273.305C503.862 273.587 503.16 273.867 502.809 274.007C498.386 272.323 495.999 274.288 494.034 275.832C493.946 275.902 493.873 275.987 493.819 276.085C493.764 276.182 493.729 276.289 493.716 276.4C493.703 276.511 493.712 276.623 493.743 276.731C493.773 276.838 493.824 276.938 493.894 277.026C493.963 277.113 494.048 277.186 494.146 277.241C494.243 277.295 494.35 277.33 494.461 277.343C494.572 277.356 494.684 277.347 494.792 277.317C494.899 277.286 494.999 277.235 495.087 277.166C496.982 275.622 498.738 274.147 502.458 275.691C502.663 275.761 502.885 275.761 503.09 275.691C503.301 275.621 508.145 273.726 509.83 273.023C510.742 272.672 512.427 272.18 513.339 273.444C513.518 273.664 513.651 273.918 513.73 274.19C513.809 274.462 513.833 274.747 513.8 275.028C513.768 275.31 513.679 275.582 513.54 275.828C513.4 276.075 513.213 276.291 512.989 276.464Z" fill="#EA6249"/>
<path d="M480.5 262.51L481.908 264.88C481.952 264.961 481.974 265.052 481.974 265.144C481.972 265.221 481.949 265.296 481.907 265.361C481.865 265.425 481.806 265.477 481.736 265.509C481.684 265.542 481.626 265.563 481.565 265.573C481.504 265.582 481.442 265.578 481.383 265.562C481.324 265.545 481.268 265.517 481.221 265.479C481.173 265.44 481.134 265.392 481.105 265.337L479.693 262.968C479.66 262.916 479.638 262.858 479.629 262.797C479.62 262.736 479.624 262.674 479.64 262.615C479.656 262.556 479.685 262.5 479.723 262.453C479.762 262.405 479.81 262.366 479.865 262.337C479.917 262.304 479.975 262.282 480.037 262.273C480.098 262.263 480.16 262.267 480.22 262.283C480.28 262.299 480.336 262.328 480.384 262.367C480.432 262.406 480.471 262.454 480.5 262.51Z" fill="#EA6249" stroke="#EA6249" stroke-width="0.678707"/>
<path d="M479.93 267.954C480.02 267.99 480.097 268.054 480.148 268.136C480.199 268.219 480.222 268.316 480.214 268.413C480.218 268.466 480.203 268.518 480.171 268.561C480.124 268.677 480.034 268.771 479.92 268.823C479.806 268.874 479.676 268.88 479.558 268.839L475.905 267.439C475.79 267.392 475.698 267.303 475.646 267.19C475.595 267.077 475.588 266.949 475.628 266.831C475.675 266.716 475.764 266.623 475.877 266.572C475.99 266.52 476.118 266.513 476.236 266.553L479.93 267.954Z" fill="#EA6249" stroke="#EA6249" stroke-width="0.678707"/>
<path d="M479.452 271.979C479.48 272.024 479.491 272.077 479.483 272.13C479.485 272.222 479.454 272.313 479.397 272.386C479.34 272.458 479.26 272.51 479.17 272.53L476.558 273.375C476.443 273.405 476.32 273.394 476.212 273.342C476.104 273.29 476.018 273.202 475.97 273.093C475.939 272.977 475.951 272.854 476.003 272.746C476.055 272.639 476.143 272.553 476.252 272.504L478.864 271.66C478.984 271.629 479.112 271.645 479.221 271.704C479.33 271.763 479.412 271.861 479.452 271.979Z" fill="#EA6249" stroke="#EA6249" stroke-width="0.678707"/>
</g>
<path d="M347.705 334.781H341.157V343.349H338.811V320.024H347.705C352.201 320.024 355.035 322.956 355.035 327.354C355.035 331.589 352.168 334.781 347.705 334.781ZM347.379 322.141H341.157V332.664H347.249C350.637 332.664 352.592 330.514 352.592 327.321C352.592 324.096 350.605 322.141 347.379 322.141ZM362.226 343.74C358.871 343.74 356.883 341.851 356.883 339.082C356.883 336.182 359.099 334.358 362.78 334.065L367.992 333.641V333.12C367.992 330.025 366.135 329.048 363.822 329.048C361.086 329.048 359.457 330.286 359.457 332.403H357.405C357.405 329.211 360.011 327.158 363.888 327.158C367.536 327.158 370.208 328.982 370.208 333.152V343.349H368.318L368.025 340.58C367.048 342.567 364.897 343.74 362.226 343.74ZM362.747 341.916C366.07 341.916 367.992 339.603 367.992 336.182V335.335L363.334 335.694C360.369 335.954 359.164 337.257 359.164 339.016C359.164 340.939 360.597 341.916 362.747 341.916ZM382.961 327.386V329.406H381.723C378.823 329.406 376.966 331.361 376.966 334.358V343.349H374.718V327.582H376.836L376.999 330.025C377.618 328.331 379.279 327.223 381.495 327.223C381.983 327.223 382.407 327.256 382.961 327.386ZM390.201 343.349H387.986V329.471H384.826V327.582H387.986V322.597H390.201V327.582H393.361V329.471H390.201V343.349ZM397.396 323.249C396.484 323.249 395.735 322.499 395.735 321.587C395.735 320.675 396.484 319.893 397.396 319.893C398.308 319.893 399.09 320.675 399.09 321.587C399.09 322.499 398.308 323.249 397.396 323.249ZM396.289 343.349V327.582H398.536V343.349H396.289ZM402.116 335.498C402.116 330.546 405.146 327.158 409.74 327.158C413.388 327.158 416.06 329.276 416.679 332.533H414.431C413.845 330.351 411.955 329.145 409.772 329.145C406.58 329.145 404.332 331.589 404.332 335.466C404.332 339.212 406.417 341.72 409.609 341.72C411.955 341.72 413.845 340.417 414.464 338.398H416.744C415.995 341.623 413.193 343.74 409.609 343.74C405.146 343.74 402.116 340.45 402.116 335.498ZM421.257 323.249C420.345 323.249 419.596 322.499 419.596 321.587C419.596 320.675 420.345 319.893 421.257 319.893C422.169 319.893 422.951 320.675 422.951 321.587C422.951 322.499 422.169 323.249 421.257 323.249ZM420.149 343.349V327.582H422.397V343.349H420.149ZM427.085 350.223V327.582H429.04L429.268 330.774C430.375 328.331 432.591 327.158 435.229 327.158C439.79 327.158 442.527 330.644 442.527 335.4C442.527 340.157 439.888 343.74 435.229 343.74C432.558 343.74 430.44 342.6 429.333 340.32V350.223H427.085ZM429.365 335.466C429.365 339.082 431.385 341.72 434.838 341.72C438.259 341.72 440.246 339.082 440.246 335.466C440.246 331.817 438.259 329.211 434.838 329.211C431.385 329.211 429.365 331.817 429.365 335.466ZM450.638 343.74C447.283 343.74 445.295 341.851 445.295 339.082C445.295 336.182 447.511 334.358 451.192 334.065L456.405 333.641V333.12C456.405 330.025 454.548 329.048 452.235 329.048C449.498 329.048 447.869 330.286 447.869 332.403H445.817C445.817 329.211 448.423 327.158 452.3 327.158C455.948 327.158 458.62 328.982 458.62 333.152V343.349H456.73L456.437 340.58C455.46 342.567 453.31 343.74 450.638 343.74ZM451.16 341.916C454.482 341.916 456.405 339.603 456.405 336.182V335.335L451.746 335.694C448.781 335.954 447.576 337.257 447.576 339.016C447.576 340.939 449.009 341.916 451.16 341.916ZM465.379 343.349H463.131V327.582H465.085L465.411 330.318C466.454 328.298 468.539 327.158 470.819 327.158C475.152 327.158 476.944 329.732 476.944 333.706V343.349H474.696V334.195C474.696 330.514 473.034 329.211 470.428 329.211C467.203 329.211 465.379 331.556 465.379 335.107V343.349ZM485.04 343.349H482.825V329.471H479.665V327.582H482.825V322.597H485.04V327.582H488.2V329.471H485.04V343.349ZM507.753 343.349H500.651V320.024H507.688C514.725 320.024 519.416 324.715 519.416 331.686C519.416 338.658 514.758 343.349 507.753 343.349ZM507.59 322.174H502.997V341.199H507.656C513.357 341.199 517.005 337.485 517.005 331.686C517.005 325.855 513.357 322.174 507.59 322.174ZM527.693 343.74C524.337 343.74 522.35 341.851 522.35 339.082C522.35 336.182 524.565 334.358 528.247 334.065L533.459 333.641V333.12C533.459 330.025 531.602 329.048 529.289 329.048C526.553 329.048 524.924 330.286 524.924 332.403H522.871C522.871 329.211 525.477 327.158 529.354 327.158C533.003 327.158 535.674 328.982 535.674 333.152V343.349H533.785L533.492 340.58C532.514 342.567 530.364 343.74 527.693 343.74ZM528.214 341.916C531.537 341.916 533.459 339.603 533.459 336.182V335.335L528.8 335.694C525.836 335.954 524.63 337.257 524.63 339.016C524.63 340.939 526.064 341.916 528.214 341.916ZM543.515 343.349H541.3V329.471H538.14V327.582H541.3V322.597H543.515V327.582H546.675V329.471H543.515V343.349ZM553.876 343.74C550.52 343.74 548.533 341.851 548.533 339.082C548.533 336.182 550.749 334.358 554.43 334.065L559.642 333.641V333.12C559.642 330.025 557.785 329.048 555.472 329.048C552.736 329.048 551.107 330.286 551.107 332.403H549.054C549.054 329.211 551.661 327.158 555.537 327.158C559.186 327.158 561.858 328.982 561.858 333.152V343.349H559.968L559.675 340.58C558.698 342.567 556.547 343.74 553.876 343.74ZM554.397 341.916C557.72 341.916 559.642 339.603 559.642 336.182V335.335L554.984 335.694C552.019 335.954 550.814 337.257 550.814 339.016C550.814 340.939 552.247 341.916 554.397 341.916ZM299.109 376.781H292.561V385.349H290.215V362.024H299.109C303.604 362.024 306.439 364.956 306.439 369.354C306.439 373.589 303.572 376.781 299.109 376.781ZM298.783 364.141H292.561V374.664H298.653C302.041 374.664 303.995 372.514 303.995 369.321C303.995 366.096 302.008 364.141 298.783 364.141ZM317.98 369.386V371.406H316.742C313.842 371.406 311.985 373.361 311.985 376.358V385.349H309.738V369.582H311.855L312.018 372.025C312.637 370.331 314.298 369.223 316.514 369.223C317.002 369.223 317.426 369.256 317.98 369.386ZM326.977 385.74C322.351 385.74 319.256 382.417 319.256 377.466C319.256 372.546 322.318 369.158 326.814 369.158C331.082 369.158 333.981 372.188 333.981 376.651V377.759H321.439C321.601 381.603 323.621 383.818 327.009 383.818C329.583 383.818 331.245 382.711 331.831 380.626H333.981C333.134 383.949 330.691 385.74 326.977 385.74ZM326.814 371.08C323.849 371.08 321.895 373.035 321.504 376.13H331.733C331.733 373.1 329.779 371.08 326.814 371.08ZM336.239 380.919H338.39C338.39 382.743 339.758 383.883 341.973 383.883C344.416 383.883 345.85 382.841 345.85 381.147C345.85 379.844 345.198 379.094 343.341 378.638L340.637 377.954C337.901 377.27 336.565 375.837 336.565 373.686C336.565 370.917 338.878 369.158 342.266 369.158C345.589 369.158 347.739 370.982 347.837 373.915H345.654C345.589 372.09 344.319 371.015 342.201 371.015C339.986 371.015 338.748 371.96 338.748 373.654C338.748 374.859 339.595 375.706 341.322 376.13L344.026 376.814C346.762 377.498 348 378.769 348 381.049C348 383.883 345.589 385.74 342.006 385.74C338.455 385.74 336.239 383.851 336.239 380.919ZM358.314 385.74C353.688 385.74 350.593 382.417 350.593 377.466C350.593 372.546 353.655 369.158 358.151 369.158C362.419 369.158 365.318 372.188 365.318 376.651V377.759H352.776C352.939 381.603 354.959 383.818 358.347 383.818C360.92 383.818 362.582 382.711 363.168 380.626H365.318C364.471 383.949 362.028 385.74 358.314 385.74ZM358.151 371.08C355.187 371.08 353.232 373.035 352.841 376.13H363.07C363.07 373.1 361.116 371.08 358.151 371.08ZM371.16 385.349H368.912V369.582H370.867L371.193 372.318C372.235 370.298 374.32 369.158 376.601 369.158C380.934 369.158 382.725 371.732 382.725 375.706V385.349H380.477V376.195C380.477 372.514 378.816 371.211 376.21 371.211C372.985 371.211 371.16 373.556 371.16 377.107V385.349ZM390.822 385.349H388.606V371.471H385.446V369.582H388.606V364.597H390.822V369.582H393.982V371.471H390.822V385.349ZM401.183 385.74C397.827 385.74 395.84 383.851 395.84 381.082C395.84 378.182 398.055 376.358 401.737 376.065L406.949 375.641V375.12C406.949 372.025 405.092 371.048 402.779 371.048C400.043 371.048 398.414 372.286 398.414 374.403H396.361C396.361 371.211 398.967 369.158 402.844 369.158C406.493 369.158 409.164 370.982 409.164 375.152V385.349H407.275L406.982 382.58C406.004 384.567 403.854 385.74 401.183 385.74ZM401.704 383.916C405.027 383.916 406.949 381.603 406.949 378.182V377.335L402.29 377.694C399.326 377.954 398.12 379.257 398.12 381.016C398.12 382.939 399.554 383.916 401.704 383.916ZM417.005 385.349H414.79V371.471H411.63V369.582H414.79V364.597H417.005V369.582H420.165V371.471H417.005V385.349ZM424.2 365.249C423.288 365.249 422.538 364.499 422.538 363.587C422.538 362.675 423.288 361.893 424.2 361.893C425.112 361.893 425.894 362.675 425.894 363.587C425.894 364.499 425.112 365.249 424.2 365.249ZM423.092 385.349V369.582H425.34V385.349H423.092ZM428.92 377.466C428.92 372.644 432.308 369.158 436.934 369.158C441.56 369.158 444.948 372.644 444.948 377.466C444.948 382.254 441.56 385.74 436.934 385.74C432.308 385.74 428.92 382.254 428.92 377.466ZM431.201 377.433C431.201 381.147 433.546 383.72 436.934 383.72C440.29 383.72 442.668 381.147 442.668 377.433C442.668 373.784 440.29 371.178 436.934 371.178C433.546 371.178 431.201 373.784 431.201 377.433ZM450.792 385.349H448.544V369.582H450.498L450.824 372.318C451.867 370.298 453.952 369.158 456.232 369.158C460.565 369.158 462.357 371.732 462.357 375.706V385.349H460.109V376.195C460.109 372.514 458.447 371.211 455.841 371.211C452.616 371.211 450.792 373.556 450.792 377.107V385.349ZM491.664 385.349L489.579 382.939C487.754 384.763 485.213 385.773 482.151 385.773C477.232 385.773 474.039 383.264 474.039 379.42C474.039 376.456 475.798 374.273 480.001 371.992C477.883 369.516 477.036 368.116 477.036 366.389C477.036 363.587 479.154 361.633 482.314 361.633C485.311 361.633 487.363 363.457 487.363 366.194C487.363 368.507 486.158 370.298 483.063 372.383L489.416 379.713C490.067 378.345 490.426 376.651 490.426 374.696H492.608C492.608 377.303 491.989 379.55 490.849 381.342L494.335 385.349H491.664ZM481.858 370.982L481.89 371.015C484.171 369.582 485.213 368.083 485.213 366.259C485.213 364.565 484.106 363.522 482.281 363.522C480.392 363.522 479.219 364.63 479.219 366.389C479.219 367.562 479.74 368.539 481.858 370.982ZM476.352 379.29C476.352 382.124 478.567 383.818 482.281 383.818C484.855 383.818 486.875 383.004 488.276 381.44L481.174 373.328C477.655 375.283 476.352 376.912 476.352 379.29ZM507.658 385.349H505.312V362.024H514.01C518.734 362.024 521.601 364.63 521.601 368.767C521.601 372.123 519.842 374.468 516.845 375.283L521.829 385.349H519.223L514.466 375.674H507.658V385.349ZM507.658 364.141V373.556H514.076C517.301 373.556 519.19 371.797 519.19 368.832C519.19 365.803 517.203 364.141 514.01 364.141H507.658ZM531.13 385.74C526.504 385.74 523.409 382.417 523.409 377.466C523.409 372.546 526.471 369.158 530.967 369.158C535.235 369.158 538.134 372.188 538.134 376.651V377.759H525.592C525.754 381.603 527.774 383.818 531.162 383.818C533.736 383.818 535.398 382.711 535.984 380.626H538.134C537.287 383.949 534.844 385.74 531.13 385.74ZM530.967 371.08C528.002 371.08 526.048 373.035 525.657 376.13H535.886C535.886 373.1 533.932 371.08 530.967 371.08ZM541.728 392.223V369.582H543.683L543.911 372.774C545.018 370.331 547.234 369.158 549.873 369.158C554.434 369.158 557.17 372.644 557.17 377.4C557.17 382.157 554.531 385.74 549.873 385.74C547.201 385.74 545.084 384.6 543.976 382.32V392.223H541.728ZM544.009 377.466C544.009 381.082 546.028 383.72 549.482 383.72C552.902 383.72 554.89 381.082 554.89 377.466C554.89 373.817 552.902 371.211 549.482 371.211C546.028 371.211 544.009 373.817 544.009 377.466ZM559.645 377.466C559.645 372.644 563.034 369.158 567.66 369.158C572.286 369.158 575.674 372.644 575.674 377.466C575.674 382.254 572.286 385.74 567.66 385.74C563.034 385.74 559.645 382.254 559.645 377.466ZM561.926 377.433C561.926 381.147 564.272 383.72 567.66 383.72C571.015 383.72 573.393 381.147 573.393 377.433C573.393 373.784 571.015 371.178 567.66 371.178C564.272 371.178 561.926 373.784 561.926 377.433ZM587.511 369.386V371.406H586.273C583.374 371.406 581.517 373.361 581.517 376.358V385.349H579.269V369.582H581.387L581.55 372.025C582.169 370.331 583.83 369.223 586.045 369.223C586.534 369.223 586.958 369.256 587.511 369.386ZM594.752 385.349H592.537V371.471H589.377V369.582H592.537V364.597H594.752V369.582H597.912V371.471H594.752V385.349ZM599.504 380.919H601.654C601.654 382.743 603.022 383.883 605.237 383.883C607.681 383.883 609.114 382.841 609.114 381.147C609.114 379.844 608.463 379.094 606.606 378.638L603.902 377.954C601.165 377.27 599.829 375.837 599.829 373.686C599.829 370.917 602.142 369.158 605.53 369.158C608.853 369.158 611.004 370.982 611.101 373.915H608.919C608.853 372.09 607.583 371.015 605.465 371.015C603.25 371.015 602.012 371.96 602.012 373.654C602.012 374.859 602.859 375.706 604.586 376.13L607.29 376.814C610.026 377.498 611.264 378.769 611.264 381.049C611.264 383.883 608.853 385.74 605.27 385.74C601.719 385.74 599.504 383.851 599.504 380.919Z" fill="#44283D"/>
</svg>
