<svg width="37" height="38" viewBox="0 0 37 38" fill="none" xmlns="http://www.w3.org/2000/svg">
<path opacity="0.1" fill-rule="evenodd" clip-rule="evenodd" d="M18.5 36.3516C28.165 36.3516 36 28.5165 36 18.8516C36 9.18658 28.165 1.35156 18.5 1.35156C8.83502 1.35156 1 9.18658 1 18.8516C1 28.5165 8.83502 36.3516 18.5 36.3516Z" stroke="#0A142F" stroke-width="1.5"/>
<path d="M25.9844 15C25.8945 14.6405 25.7112 14.3111 25.4531 14.045C25.1951 13.779 24.8714 13.5858 24.5148 13.4849C23.2119 13.1667 18 13.1667 18 13.1667C18 13.1667 12.7882 13.1667 11.4852 13.5152C11.1286 13.6161 10.8049 13.8093 10.5469 14.0753C10.2888 14.3414 10.1056 14.6708 10.0156 15.0303C9.77711 16.3526 9.66047 17.694 9.6671 19.0377C9.6586 20.3914 9.77526 21.743 10.0156 23.0753C10.1148 23.4237 10.3022 23.7406 10.5596 23.9953C10.817 24.2501 11.1358 24.4342 11.4852 24.5298C12.7882 24.8783 18 24.8783 18 24.8783C18 24.8783 23.2119 24.8783 24.5148 24.5298C24.8714 24.4289 25.1951 24.2357 25.4531 23.9697C25.7112 23.7036 25.8945 23.3742 25.9844 23.0147C26.2211 21.7024 26.3377 20.3712 26.3329 19.0377C26.3414 17.6839 26.2248 16.3323 25.9844 15Z" stroke="#1E4854" stroke-width="2" stroke-linecap="round" stroke-linejoin="round"/>
<path d="M16.125 16.8879C16.125 16.4901 16.125 16.2913 16.2081 16.1802C16.2806 16.0835 16.3914 16.0229 16.512 16.0143C16.6503 16.0045 16.8176 16.112 17.1522 16.3271L20.4379 18.4393C20.7282 18.6259 20.8733 18.7192 20.9235 18.8379C20.9673 18.9416 20.9673 19.0586 20.9235 19.1623C20.8733 19.2809 20.7282 19.3742 20.4379 19.5609L17.1522 21.6731C16.8176 21.8882 16.6503 21.9957 16.512 21.9858C16.3914 21.9772 16.2806 21.9167 16.2081 21.8199C16.125 21.7089 16.125 21.51 16.125 21.1123V16.8879Z" stroke="#1E4854" stroke-width="2" stroke-linecap="round" stroke-linejoin="round"/>
</svg>
